<?xml version="1.0" encoding="UTF-8" standalone="no"?>
<!-- Created with Inkscape (http://www.inkscape.org/) -->

<svg
   width="96"
   height="32"
   viewBox="0 0 96 32"
   version="1.1"
   id="svg1"
   inkscape:version="1.4.2 (f4327f4, 2025-05-13)"
   sodipodi:docname="tile-tile.svg"
   xmlns:inkscape="http://www.inkscape.org/namespaces/inkscape"
   xmlns:sodipodi="http://sodipodi.sourceforge.net/DTD/sodipodi-0.dtd"
   xmlns="http://www.w3.org/2000/svg"
   xmlns:svg="http://www.w3.org/2000/svg">
  <sodipodi:namedview
     id="namedview1"
     pagecolor="#505050"
     bordercolor="#eeeeee"
     borderopacity="1"
     inkscape:showpageshadow="0"
     inkscape:pageopacity="0"
     inkscape:pagecheckerboard="0"
     inkscape:deskcolor="#505050"
     inkscape:document-units="px"
     showguides="true"
     showgrid="true"
     inkscape:zoom="8.8830289"
     inkscape:cx="53.979336"
     inkscape:cy="59.214037"
     inkscape:window-width="3840"
     inkscape:window-height="2131"
     inkscape:window-x="2551"
     inkscape:window-y="-9"
     inkscape:window-maximized="1"
     inkscape:current-layer="layer1">
    <inkscape:grid
       id="grid1"
       units="px"
       originx="0.0049999952"
       originy="0.0049999952"
       spacingx="1"
       spacingy="1"
       empcolor="#0099e5"
       empopacity="0.30196078"
       color="#0099e5"
       opacity="0.14901961"
       empspacing="4"
       enabled="true"
       visible="true" />
  </sodipodi:namedview>
  <defs
     id="defs1" />
  <g
     inkscape:label="Calque 1"
     inkscape:groupmode="layer"
     id="layer1">
    <path
       id="path6"
       style="fill:none;fill-opacity:1;stroke:#000000;stroke-width:1px;stroke-linecap:butt;stroke-linejoin:miter;stroke-opacity:1"
       d="M 56,0 H 88 V 8 H 56 Z m 32,12 v 4 M 80,8 h 16 v 12 h -8 8 v 12 h -8 v -8 8 h -8 z m -8,4 v 4 M 64,32 V 8 H 80 V 32 H 72 V 20 32 Z M 56,8 h 8 V 32 H 48 v -8 h 8 z m -40,8 h 8 v 16 h -8 z m 0,-8 v 8 h 8 V 8 Z M 56,0 H 32 V 24 H 56 V 16 H 40 56 V 8 H 40 56 Z M 32,0 H 24 V 32 H 48 V 24 H 32 Z M 0,0 H 24 V 8 H 16 V 32 H 8 V 8 H 0 Z" />
  </g>
</svg>
